<svg width="528" height="933" viewBox="0 0 528 933" fill="none" xmlns="http://www.w3.org/2000/svg">
<line x1="66.5684" y1="930.331" x2="218.582" y2="68.2186" stroke="white" stroke-width="9"/>
<line y1="-4.5" x2="875.411" y2="-4.5" transform="matrix(0.173648 0.984808 0.984808 -0.173648 300 69)" stroke="white" stroke-width="9"/>
<line x1="198" y1="182.5" x2="316" y2="182.5" stroke="white" stroke-width="5"/>
<line x1="124" y1="599.5" x2="391" y2="599.5" stroke="white" stroke-width="5"/>
<line x1="257.5" y1="184.995" x2="258.447" y2="848.995" stroke="white" stroke-width="7"/>
<line x1="71" y1="587" x2="452" y2="587" stroke="white" stroke-width="30"/>
<line x1="258.5" y1="602" x2="258.5" y2="1.91365e-08" stroke="white" stroke-width="17"/>
<line x1="234" y1="248" x2="283" y2="248" stroke="white" stroke-width="20"/>
<line x1="259.5" y1="222" x2="259.5" y2="245" stroke="white" stroke-width="23"/>
<rect y="258" width="528" height="315" fill="#D9D9D9"/>
<path d="M43.9632 417.71V410.948L64.3332 399.356V406.622L50.5572 414.266L64.3332 421.91V429.302L43.9632 417.71ZM114.178 409.875H118.828L112.953 430.25H108.353L104.703 417.475L101.053 430.25H96.4525L90.5775 409.875H95.4525L98.9525 423.2L102.453 409.875H107.178L110.653 423.15L114.178 409.875ZM126.097 430.6C121.622 430.6 118.472 427.4 118.472 422.925C118.472 418.475 121.622 415.25 126.097 415.25C130.572 415.25 133.722 418.45 133.722 422.925C133.722 423.35 133.697 423.825 133.622 424.35H122.897C123.247 426.05 124.422 427.025 126.097 427.025C127.372 427.025 128.422 426.575 128.797 425.875H133.272C132.522 428.675 129.647 430.6 126.097 430.6ZM122.872 421.475H129.372C128.997 419.725 127.847 418.775 126.097 418.775C124.347 418.775 123.247 419.725 122.872 421.475ZM144.986 430.6C143.061 430.6 141.661 429.925 140.786 428.75V430.25H136.336V409.25H140.786V417.1C141.661 415.925 143.061 415.25 144.986 415.25C149.186 415.25 152.111 418.475 152.111 422.925C152.111 427.375 149.186 430.6 144.986 430.6ZM144.286 426.8C146.411 426.8 147.761 425.175 147.761 422.925C147.761 420.675 146.411 419.05 144.286 419.05C142.111 419.05 140.711 420.675 140.711 422.925C140.711 425.175 142.111 426.8 144.286 426.8ZM154.72 436.35V415.6H159.17V417.1C160.045 415.925 161.445 415.25 163.37 415.25C167.57 415.25 170.495 418.475 170.495 422.925C170.495 427.375 167.57 430.6 163.37 430.6C161.445 430.6 160.045 429.925 159.17 428.75V436.35H154.72ZM162.67 426.8C164.795 426.8 166.145 425.175 166.145 422.925C166.145 420.675 164.795 419.05 162.67 419.05C160.495 419.05 159.095 420.675 159.095 422.925C159.095 425.175 160.495 426.8 162.67 426.8ZM179.479 430.6C175.279 430.6 172.354 427.375 172.354 422.925C172.354 418.475 175.279 415.25 179.479 415.25C181.404 415.25 182.804 415.925 183.679 417.1V415.6H188.129V430.25H183.679V428.75C182.804 429.925 181.404 430.6 179.479 430.6ZM180.179 426.8C182.354 426.8 183.754 425.175 183.754 422.925C183.754 420.675 182.354 419.05 180.179 419.05C178.054 419.05 176.704 420.675 176.704 422.925C176.704 425.175 178.054 426.8 180.179 426.8ZM198.963 436.7C194.613 436.7 192.213 434.225 191.738 431.4H196.237C196.463 432.35 197.313 432.95 198.963 432.95C200.813 432.95 202.063 431.75 202.063 429.925V428.375C201.188 429.55 199.788 430.225 197.863 430.225C193.663 430.225 190.738 427.1 190.738 422.8C190.738 418.425 193.663 415.25 197.863 415.25C199.788 415.25 201.188 415.925 202.063 417.1V415.6H206.513V429.975C206.513 433.95 203.338 436.7 198.963 436.7ZM198.563 426.55C200.738 426.55 202.138 424.975 202.138 422.8C202.138 420.625 200.738 419.05 198.563 419.05C196.438 419.05 195.088 420.625 195.088 422.8C195.088 424.975 196.438 426.55 198.563 426.55ZM216.746 430.6C212.271 430.6 209.121 427.4 209.121 422.925C209.121 418.475 212.271 415.25 216.746 415.25C221.221 415.25 224.371 418.45 224.371 422.925C224.371 423.35 224.346 423.825 224.271 424.35H213.546C213.896 426.05 215.071 427.025 216.746 427.025C218.021 427.025 219.071 426.575 219.446 425.875H223.921C223.171 428.675 220.296 430.6 216.746 430.6ZM213.521 421.475H220.021C219.646 419.725 218.496 418.775 216.746 418.775C214.996 418.775 213.896 419.725 213.521 421.475ZM236.217 408.525C237.792 408.525 238.942 409.675 238.942 411.25C238.942 412.825 237.792 413.975 236.217 413.975C234.642 413.975 233.492 412.825 233.492 411.25C233.492 409.675 234.642 408.525 236.217 408.525ZM238.442 415.6V430.3H233.992V415.6H238.442ZM247.905 415.25C251.555 415.25 254.43 417.1 254.605 420H250.305C250.155 419.1 249.13 418.55 247.83 418.55C246.48 418.55 245.505 419.025 245.505 419.675C245.505 420.4 246.48 420.75 248.98 421.15C253.305 421.8 254.855 423.225 254.855 425.75C254.855 428.75 251.705 430.6 247.98 430.6C244.155 430.6 241.255 428.7 241.105 425.625H245.405C245.555 426.575 246.655 427.2 248.055 427.2C249.48 427.2 250.53 426.675 250.53 426C250.53 425.3 249.53 424.85 247.005 424.475C243.505 423.95 241.205 422.875 241.205 419.9C241.205 417.05 244.18 415.25 247.905 415.25ZM271.511 415.25C276.036 415.25 279.286 418.475 279.286 422.925C279.286 427.375 276.036 430.6 271.511 430.6C266.986 430.6 263.736 427.375 263.736 422.925C263.736 418.475 266.986 415.25 271.511 415.25ZM271.511 419.05C269.411 419.05 268.036 420.675 268.036 422.925C268.036 425.175 269.411 426.8 271.511 426.8C273.611 426.8 274.986 425.175 274.986 422.925C274.986 420.675 273.611 419.05 271.511 419.05ZM287.393 430.6C283.993 430.6 281.668 428.125 281.668 424.075V415.6H286.118V423.325C286.118 425.55 287.018 426.775 288.693 426.775C290.443 426.775 291.493 425.4 291.493 423.125V415.6H295.943V430.25H291.493V428.75C290.618 429.925 289.268 430.6 287.393 430.6ZM299.3 430.25V415.6H303.75V417.1C304.625 415.925 305.975 415.25 307.85 415.25C308.675 415.25 309.2 415.3 309.775 415.5L309.825 419.675C309.2 419.35 308.425 419.175 307.55 419.175C305.175 419.175 303.75 420.525 303.75 422.75V430.25H299.3ZM329.078 430.75C322.803 430.75 318.178 426.225 318.178 420.05C318.178 413.875 322.803 409.35 329.078 409.35C334.678 409.35 338.428 412.725 339.253 417.025H334.653C334.178 415.075 332.103 413.525 329.178 413.525C325.478 413.525 322.728 416.25 322.728 420.05C322.728 423.825 325.478 426.575 329.178 426.575C332.103 426.575 334.503 424.65 334.853 422.8H339.453C338.828 426.9 334.728 430.75 329.078 430.75ZM348.326 430.6C344.126 430.6 341.201 427.375 341.201 422.925C341.201 418.475 344.126 415.25 348.326 415.25C350.251 415.25 351.651 415.925 352.526 417.1V415.6H356.976V430.25H352.526V428.75C351.651 429.925 350.251 430.6 348.326 430.6ZM349.026 426.8C351.201 426.8 352.601 425.175 352.601 422.925C352.601 420.675 351.201 419.05 349.026 419.05C346.901 419.05 345.551 420.675 345.551 422.925C345.551 425.175 346.901 426.8 349.026 426.8ZM360.335 430.25V415.6H364.785V417.1C365.66 415.925 367.01 415.25 368.885 415.25C372.285 415.25 374.61 417.725 374.61 421.775V430.25H370.16V422.525C370.16 420.3 369.26 419.075 367.585 419.075C365.835 419.075 364.785 420.45 364.785 422.725V430.25H360.335ZM387.009 415.6H391.509L385.884 430.25H381.259L375.634 415.6H380.459L383.734 425.15L387.009 415.6ZM399.108 430.6C394.908 430.6 391.983 427.375 391.983 422.925C391.983 418.475 394.908 415.25 399.108 415.25C401.033 415.25 402.433 415.925 403.308 417.1V415.6H407.758V430.25H403.308V428.75C402.433 429.925 401.033 430.6 399.108 430.6ZM399.808 426.8C401.983 426.8 403.383 425.175 403.383 422.925C403.383 420.675 401.983 419.05 399.808 419.05C397.683 419.05 396.333 420.675 396.333 422.925C396.333 425.175 397.683 426.8 399.808 426.8ZM417.241 415.25C420.891 415.25 423.766 417.1 423.941 420H419.641C419.491 419.1 418.466 418.55 417.166 418.55C415.816 418.55 414.841 419.025 414.841 419.675C414.841 420.4 415.816 420.75 418.316 421.15C422.641 421.8 424.191 423.225 424.191 425.75C424.191 428.75 421.041 430.6 417.316 430.6C413.491 430.6 410.591 428.7 410.441 425.625H414.741C414.891 426.575 415.991 427.2 417.391 427.2C418.816 427.2 419.866 426.675 419.866 426C419.866 425.3 418.866 424.85 416.341 424.475C412.841 423.95 410.541 422.875 410.541 419.9C410.541 417.05 413.516 415.25 417.241 415.25ZM460.473 395.03L445.101 434.3H437.751L453.123 395.03H460.473ZM484.037 417.71L463.667 429.302V421.91L477.443 414.266L463.667 406.622V399.356L484.037 410.948V417.71Z" fill="black"/>
</svg>
